<svg xmlns="http://www.w3.org/2000/svg" width="48" height="48" viewBox="0 0 24 24" fill="none">
  <rect width="24" height="24" rx="4" fill="#1DA1F2"/>
  <path d="M19 7.5c-.5.2-1 .3-1.6.4a3.2 3.2 0 0 0 1.4-1.8c-.6.3-1.2.5-1.9.7a3.2 3.2 0 0 0-5.6 2.9A9 9 0 0 1 5.7 6.8a3.2 3.2 0 0 0 .99 4.3c-.4 0-.8-.1-1.1-.3v.03a3.2 3.2 0 0 0 2.6 3.1c-.3.1-.6.1-.9.1-.2 0-.4 0-.6-.05a3.2 3.2 0 0 0 3 2.2A6.4 6.4 0 0 1 5 18c-.5 0-1-.03-1.5-.12A9 9 0 0 0 8.1 20c5.7 0 8.8-4.8 8.8-8.9v-.4c.6-.4 1.1-.9 1.5-1.5-.5.2-1 .3-1.6.4z" fill="#fff"/>
</svg>